<?xml version="1.0" encoding="UTF-8"?>
<svg width="61px" height="65px" viewBox="0 0 61 65" version="1.1" xmlns="http://www.w3.org/2000/svg" xmlns:xlink="http://www.w3.org/1999/xlink">
    <title>logo</title>
    <g id="Final" stroke="none" stroke-width="1" fill="none" fill-rule="evenodd">
        <g id="Homepage" transform="translate(-151.000000, -7807.000000)" fill="#BA2025" fill-rule="nonzero">
            <g id="Footer" transform="translate(1.000000, 7798.000000)">
                <g id="logo" transform="translate(150.286334, 9.156951)">
                    <g id="Group" transform="translate(5.582960, 0.000000)">
                        <circle id="Oval" cx="3.92376682" cy="40.3139013" r="3.92376682"></circle>
                        <circle id="Oval" cx="17.7578475" cy="35.3811659" r="1.59192825"></circle>
                        <circle id="Oval" cx="36.6143498" cy="28.4753363" r="1.59192825"></circle>
                        <circle id="Oval" cx="36.32287" cy="36.0538117" r="1.59192825"></circle>
                        <circle id="Oval" cx="30.7174888" cy="41.32287" r="1.59192825"></circle>
                        <circle id="Oval" cx="23.0044843" cy="40.8744395" r="1.59192825"></circle>
                        <circle id="Oval" cx="18.0269058" cy="27.7578475" r="1.59192825"></circle>
                        <circle id="Oval" cx="23.7668161" cy="22.5336323" r="1.59192825"></circle>
                        <circle id="Oval" cx="31.3452915" cy="22.7802691" r="1.59192825"></circle>
                        <circle id="Oval" cx="21.2556054" cy="34.0807175" r="1.03139013"></circle>
                        <circle id="Oval" cx="33.3856502" cy="29.6188341" r="1.03139013"></circle>
                        <circle id="Oval" cx="33.1838565" cy="34.5067265" r="1.03139013"></circle>
                        <circle id="Oval" cx="29.573991" cy="37.8923767" r="1.03139013"></circle>
                        <circle id="Oval" cx="24.6188341" cy="37.6008969" r="1.03139013"></circle>
                        <circle id="Oval" cx="21.4125561" cy="29.1704036" r="1.03139013"></circle>
                        <circle id="Oval" cx="25.1121076" cy="25.8071749" r="1.03139013"></circle>
                        <circle id="Oval" cx="29.9775785" cy="25.9641256" r="1.03139013"></circle>
                        <circle id="Oval" cx="12.3542601" cy="37.2869955" r="2.51121076"></circle>
                        <circle id="Oval" transform="translate(42.156543, 26.378821) rotate(-67.499572) translate(-42.156543, -26.378821) " cx="42.1565426" cy="26.3788206" r="2.51127417"></circle>
                        <circle id="Oval" cx="41.6816143" cy="38.3632287" r="2.51121076"></circle>
                        <circle id="Oval" cx="20.6278027" cy="45.941704" r="2.51121076"></circle>
                        <circle id="Oval" transform="translate(12.759475, 25.224354) rotate(-80.781636) translate(-12.759475, -25.224354) " cx="12.7594753" cy="25.2243543" r="2.511249"></circle>
                        <circle id="Oval" transform="translate(21.839711, 16.972370) rotate(-45.000000) translate(-21.839711, -16.972370) " cx="21.8397108" cy="16.97237" r="2.51118668"></circle>
                        <circle id="Oval" cx="4.70852018" cy="21.3004484" r="3.92376682"></circle>
                        <circle id="Oval" cx="18.7892377" cy="8.38565022" r="3.92376682"></circle>
                        <circle id="Oval" cx="16.7040359" cy="54.3273543" r="3.92376682"></circle>
                        <circle id="Oval" cx="35.7174888" cy="55.044843" r="3.92376682"></circle>
                        <circle id="Oval" cx="49.7085202" cy="42.2869955" r="3.92376682"></circle>
                        <circle id="Oval" cx="50.4484305" cy="23.4304933" r="3.92376682"></circle>
                        <path d="M35.7174888,45.5156951 C35.4932735,45.5156951 35.2914798,45.5156951 35.0896861,45.5381166 C34.6860987,44.7085202 33.8340807,44.1479821 32.8475336,44.1479821 C31.4573991,44.1479821 30.3363229,45.2690583 30.3363229,46.6591928 C30.3363229,46.838565 30.3587444,46.9955157 30.3811659,47.1748879 C27.8699552,48.8789238 26.2331839,51.7713004 26.2331839,55.0224215 C26.2331839,60.2690583 30.4932735,64.529148 35.7399103,64.529148 C40.9865471,64.529148 45.2466368,60.2690583 45.2466368,55.0224215 C45.2242152,49.7757848 40.9641256,45.5156951 35.7174888,45.5156951 Z M35.7174888,60.941704 C32.4663677,60.941704 29.8206278,58.2959641 29.8206278,55.044843 C29.8206278,51.793722 32.4663677,49.1479821 35.7174888,49.1479821 C38.9686099,49.1479821 41.6143498,51.793722 41.6143498,55.044843 C41.6143498,58.2959641 38.9686099,60.941704 35.7174888,60.941704 Z" id="Shape"></path>
                        <circle id="Oval" cx="37.735426" cy="9.52914798" r="3.92376682"></circle>
                        <path d="M31.4125561,16.6143498 C31.3452915,16.8609865 31.3004484,17.1076233 31.3004484,17.3766816 C31.3004484,18.7668161 32.4215247,19.8878924 33.8116592,19.8878924 C34.6412556,19.8878924 35.4035874,19.4843049 35.8520179,18.8340807 C36.4573991,18.9461883 37.0852018,19.0134529 37.735426,19.0134529 C42.9820628,19.0134529 47.2421525,14.7533632 47.2421525,9.50672646 C47.2421525,4.26008969 42.9820628,0 37.735426,0 C32.4887892,0 28.2286996,4.26008969 28.2286996,9.50672646 C28.2286996,12.3542601 29.4618834,14.8654709 31.4125561,16.6143498 Z M37.735426,3.60986547 C40.9865471,3.60986547 43.632287,6.25560538 43.632287,9.50672646 C43.632287,12.7578475 40.9865471,15.4035874 37.735426,15.4035874 C34.4843049,15.4035874 31.838565,12.7578475 31.838565,9.50672646 C31.838565,6.27802691 34.4843049,3.60986547 37.735426,3.60986547 Z" id="Shape"></path>
                    </g>
                    <path d="M9.50672646,34.4170404 C12.7578475,34.4170404 15.4035874,37.0627803 15.4035874,40.3139013 C15.4035874,43.5650224 12.7578475,46.2107623 9.50672646,46.2107623 C6.25560538,46.2107623 3.60986547,43.5650224 3.60986547,40.3139013 C3.58744395,37.0627803 6.25560538,34.4170404 9.50672646,34.4170404 M9.50672646,30.8071749 C4.26008969,30.8071749 0,35.0672646 0,40.3139013 C0,45.5605381 4.26008969,49.8206278 9.50672646,49.8206278 C14.7533632,49.8206278 19.0134529,45.5605381 19.0134529,40.3139013 C19.0134529,35.0672646 14.7533632,30.8071749 9.50672646,30.8071749 L9.50672646,30.8071749 Z" id="Shape"></path>
                </g>
            </g>
        </g>
    </g>
</svg>