<?xml version="1.0" encoding="UTF-8" standalone="no"?>
<!-- Created with Inkscape (http://www.inkscape.org/) -->

<svg
    version="1.1"
    xmlns="http://www.w3.org/2000/svg"
    xmlns:xlink="http://www.w3.org/1999/xlink"
    x="0px"
    y="0px"
    viewBox="0 0 90 57"
    class="tao-logo red"
    style="enable-background:new 0 0 90 57;fill:#BA2027;"
    xml:space="preserve"
    role="img"
    aria-label="Tao Logo"
>
    <g id="logo">
        <path
            d="M37.13,32.18c-1.76,0.63-2.67,2.56-2.03,4.31c0.64,1.75,2.59,2.65,4.36,2.01
            c1.77-0.63,2.67-2.57,2.03-4.31C40.85,32.45,38.9,31.54,37.13,32.18z" />
        <path
            d="M40.46,16.07c-1.7-0.78-3.73-0.06-4.52,1.63c-0.8,1.68-0.06,3.69,1.64,4.47
            c1.7,0.79,3.72,0.06,4.52-1.63C42.9,18.86,42.17,16.86,40.46,16.07z" />
        <path
            d="M49.96,5c-1.77,0.64-2.68,2.57-2.03,4.31c0.64,1.75,2.6,2.65,4.36,2.01
            c1.77-0.64,2.68-2.57,2.03-4.31C53.68,5.26,51.72,4.36,49.96,5z" />
        <path
            d="M68.95,5.82c-1.7-0.78-3.73-0.06-4.52,1.63c-0.79,1.68-0.06,3.69,1.65,4.47
            c1.7,0.79,3.73,0.06,4.52-1.63C71.39,8.6,70.65,6.6,68.95,5.82z" />
        <path
            d="M77.44,17.67c-1.77,0.64-2.68,2.57-2.03,4.32c0.64,1.74,2.59,2.64,4.36,2.01
            c1.76-0.63,2.67-2.56,2.03-4.31C81.15,17.93,79.2,17.04,77.44,17.67z" />
        <path
            d="M50.83,44.25c-1.7-0.78-3.73-0.05-4.52,1.63c-0.79,1.68-0.06,3.68,1.64,4.47
            c1.7,0.79,3.73,0.06,4.52-1.62C53.27,47.04,52.54,45.04,50.83,44.25z" />
        <path
            d="M64.62,44.85c-1.76,0.63-2.67,2.56-2.03,4.31c0.64,1.75,2.59,2.64,4.36,2.01
            c1.76-0.64,2.68-2.57,2.04-4.31C68.34,45.12,66.39,44.22,64.62,44.85z" />
        <path
            d="M79.32,34c-1.71-0.78-3.73-0.06-4.52,1.63c-0.79,1.68-0.06,3.69,1.65,4.47
            c1.7,0.78,3.72,0.06,4.52-1.63C81.76,36.79,81.02,34.78,79.32,34z" />
        <path
            d="M46.94,20.4c-1.09-0.5-2.38-0.04-2.89,1.04c-0.51,1.08-0.04,2.36,1.05,2.86
            c1.09,0.5,2.38,0.03,2.89-1.04C48.5,22.18,48.03,20.9,46.94,20.4z" />
        <path
            d="M53.02,13.31c-1.13,0.41-1.71,1.64-1.3,2.76c0.41,1.12,1.66,1.69,2.79,1.28
            c1.13-0.41,1.71-1.64,1.3-2.76C55.4,13.48,54.15,12.9,53.02,13.31z" />
        <path
            d="M70.6,21.42c-1.13,0.41-1.71,1.64-1.3,2.76c0.41,1.12,1.66,1.69,2.79,1.29
            c1.13-0.41,1.71-1.64,1.3-2.76C72.98,21.59,71.73,21.01,70.6,21.42z" />
        <path
            d="M53.58,38.44c-1.09-0.5-2.39-0.04-2.89,1.04c-0.51,1.08-0.04,2.36,1.05,2.86
            c1.09,0.5,2.39,0.04,2.89-1.04C55.14,40.22,54.67,38.94,53.58,38.44z" />
        <path
            d="M71.81,31.87c-1.09-0.5-2.39-0.04-2.89,1.04c-0.51,1.08-0.04,2.36,1.05,2.86
            c1.09,0.5,2.38,0.04,2.89-1.04C73.37,33.65,72.9,32.38,71.81,31.87z" />
        <path
            d="M49.73,29.76c-0.72,0.26-1.1,1.05-0.83,1.77c0.26,0.72,1.06,1.08,1.79,0.82
            c0.72-0.26,1.09-1.05,0.83-1.77C51.25,29.87,50.45,29.5,49.73,29.76z" />
        <path
            d="M51.09,23.17c-0.7-0.32-1.53-0.03-1.85,0.67c-0.33,0.69-0.03,1.51,0.67,1.83
            c0.7,0.32,1.53,0.02,1.86-0.67C52.09,24.31,51.79,23.49,51.09,23.17z" />
        <path
            d="M54.98,18.63c-0.72,0.26-1.1,1.05-0.84,1.77c0.26,0.71,1.06,1.08,1.78,0.83
            c0.73-0.26,1.1-1.05,0.84-1.77C56.5,18.74,55.7,18.37,54.98,18.63z" />
        <path
            d="M62.76,18.96c-0.7-0.32-1.52-0.02-1.85,0.67c-0.33,0.69-0.02,1.51,0.67,1.84
            c0.7,0.32,1.53,0.02,1.85-0.67C63.75,20.1,63.45,19.29,62.76,18.96z" />
        <path
            d="M66.23,23.82c-0.72,0.26-1.1,1.05-0.83,1.77c0.26,0.71,1.06,1.09,1.79,0.82
            c0.72-0.26,1.1-1.05,0.83-1.77C67.75,23.93,66.95,23.56,66.23,23.82z" />
        <path
            d="M55.33,34.71c-0.7-0.32-1.53-0.02-1.85,0.67c-0.33,0.69-0.03,1.51,0.67,1.83
            c0.7,0.32,1.53,0.02,1.85-0.66C56.33,35.85,56.03,35.03,55.33,34.71z" />
        <path
            d="M60.98,34.96c-0.72,0.26-1.1,1.05-0.83,1.76c0.26,0.71,1.06,1.08,1.78,0.82
            c0.72-0.26,1.1-1.05,0.83-1.77C62.5,35.06,61.71,34.69,60.98,34.96z" />
        <path
            d="M67,30.51c-0.7-0.32-1.53-0.02-1.85,0.67c-0.33,0.69-0.03,1.51,0.67,1.83
            c0.7,0.32,1.53,0.02,1.85-0.67C68,31.65,67.7,30.83,67,30.51z" />
        <path
            d="M52.87,29.16c-0.46,0.17-0.7,0.67-0.53,1.13c0.17,0.46,0.68,0.7,1.14,0.53
            c0.46-0.17,0.7-0.68,0.53-1.13C53.85,29.23,53.33,28.99,52.87,29.16z" />
        <path
            d="M53.74,24.94c-0.45-0.21-0.98-0.02-1.18,0.42c-0.21,0.44-0.02,0.97,0.43,1.18
            c0.45,0.2,0.98,0.01,1.19-0.43C54.38,25.67,54.19,25.14,53.74,24.94z" />
        <path
            d="M56.23,22.03c-0.47,0.17-0.7,0.67-0.53,1.13c0.17,0.46,0.68,0.69,1.14,0.53
            c0.46-0.17,0.7-0.67,0.53-1.13C57.2,22.1,56.69,21.87,56.23,22.03z" />
        <path
            d="M61.21,22.25c-0.45-0.21-0.98-0.02-1.18,0.43c-0.21,0.44-0.02,0.97,0.43,1.17
            c0.44,0.2,0.98,0.01,1.18-0.43C61.85,22.98,61.65,22.45,61.21,22.25z" />
        <path
            d="M63.43,25.36c-0.46,0.17-0.7,0.67-0.53,1.13c0.17,0.46,0.68,0.69,1.14,0.53
            c0.46-0.17,0.7-0.67,0.53-1.13C64.41,25.42,63.9,25.19,63.43,25.36z" />
        <path
            d="M56.46,32.33c-0.45-0.21-0.98-0.02-1.19,0.43c-0.21,0.44-0.01,0.97,0.43,1.17
            c0.45,0.21,0.98,0.02,1.19-0.43C57.1,33.05,56.9,32.53,56.46,32.33z" />
        <path
            d="M60.07,32.48c-0.46,0.17-0.7,0.67-0.53,1.13c0.17,0.46,0.68,0.69,1.14,0.52
            c0.46-0.17,0.7-0.67,0.53-1.13C61.05,32.55,60.54,32.32,60.07,32.48z" />
        <path
            d="M63.92,29.64c-0.45-0.21-0.98-0.02-1.18,0.43c-0.21,0.44-0.01,0.96,0.43,1.17
            c0.45,0.21,0.98,0.02,1.18-0.43C64.56,30.37,64.37,29.84,63.92,29.64z" />
        <path
            d="M67.32,0.88c-4.56,0-8.07,3.88-8.07,8.19c0,2.46,1.17,4.63,2.93,6.09
            c-0.31,1.01,0.16,2.12,1.15,2.58c0.99,0.46,2.14,0.11,2.73-0.77c0.46,0.08,0.93,0.13,1.41,0.13c4.81,0,8.35-3.75,8.35-8.06
            C75.83,4.46,72.38,0.88,67.32,0.88z M67.58,14.2c-3.04,0-5.26-2.38-5.26-5.21c0-2.66,2.2-5.21,5.11-5.21
            c3.04,0,5.37,2.38,5.37,5.28C72.79,11.84,70.38,14.2,67.58,14.2z" />
        <path
            d="M65.5,39.9c-0.13,0-0.26,0.01-0.39,0.02c-0.48-0.99-1.64-1.49-2.7-1.1
            c-1.04,0.37-1.6,1.44-1.37,2.48c-2.19,1.51-3.61,4.06-3.61,6.79c0,4.48,3.87,8.03,8.22,8.03c4.81,0,8.35-3.75,8.35-8.06
            C74,43.48,70.56,39.9,65.5,39.9z
            M65.75,53.22c-3.04,0-5.27-2.38-5.27-5.21c0-2.65,2.2-5.21,5.11-5.21c3.03,0,5.36,2.38,5.36,5.28
            C70.96,50.87,68.56,53.22,65.75,53.22z" />
        <path
            d="M88.5,17.08c0-0.53-0.4-0.81-1.2-0.81h-1.08v2.93h0.54v-1.25h0.54l0.58,1.25h0.61l-0.64-1.34
            C88.26,17.78,88.5,17.5,88.5,17.08z
            M87.22,17.6h-0.46v-0.97h0.44c0.51,0,0.74,0.14,0.74,0.5C87.94,17.48,87.71,17.6,87.22,17.6z" />
        <path
            d="M89.04,15.97c-0.49-0.5-1.12-0.77-1.81-0.77c-0.68,0-1.29,0.25-1.76,0.73
            c-0.49,0.51-0.77,1.17-0.77,1.85c0,0.68,0.26,1.32,0.74,1.81c0.49,0.5,1.11,0.78,1.79,0.78c0.66,0,1.3-0.27,1.8-0.77
            c0.48-0.48,0.74-1.11,0.74-1.82C89.77,17.1,89.51,16.45,89.04,15.97z
            M88.8,19.37c-0.44,0.43-0.98,0.66-1.58,0.66
            c-0.57,0-1.12-0.24-1.53-0.67c-0.42-0.43-0.65-0.98-0.65-1.57c0-0.59,0.24-1.16,0.67-1.61c0.4-0.42,0.94-0.64,1.53-0.64
            c0.61,0,1.15,0.23,1.57,0.67c0.41,0.42,0.63,0.98,0.63,1.6C89.44,18.41,89.21,18.96,88.8,19.37z" />
        <path
            d="M47.61,31.99c-0.38-1.04-1.49-1.6-2.55-1.35c-1.45-2.07-3.86-3.42-6.75-3.42
            c-4.73,0-8.24,3.69-8.24,8.15v0.06c0,4.43,3.48,8.06,8.18,8.06c4.76,0,8.27-3.69,8.27-8.12v-0.06c0-0.22-0.02-0.44-0.03-0.65
            C47.5,34.2,48,33.05,47.61,31.99z M43.37,35.43c0,2.69-1.96,4.96-5.06,4.96c-2.97,0-5.09-2.3-5.09-5.02v-0.06
            c0-2.72,1.96-4.96,5.03-4.96c3,0,5.12,2.27,5.12,5.02V35.43z" />
        <path
            d="M20.44,27.32c-2.57,0-4.27,0.53-6,1.3l0.99,2.86c1.43-0.59,2.75-0.97,4.51-0.97
            c2.51,0,3.88,1.18,3.88,3.33v0.29c-1.22-0.38-2.45-0.65-4.36-0.65c-3.67,0-6.39,1.65-6.39,5.11v0.06c0,3.13,2.63,4.81,5.61,4.81
            c2.39,0,4.03-0.97,5.1-2.24v1.92h3.58V33.9C27.36,29.73,25.09,27.32,20.44,27.32z
            M23.59,37.5c0,1.95-1.79,3.28-4.18,3.28
            c-1.7,0-3.04-0.83-3.04-2.3v-0.06c0-1.5,1.34-2.42,3.61-2.42c1.4,0,2.69,0.26,3.61,0.62V37.5z" />
        <path
            d="M5.78,23.27H2.17v4.28h-2v3.07h2v8.21c0,3.42,1.88,4.58,4.54,4.58c1.35,0,2.36-0.3,3.25-0.8v-2.92
            c-0.71,0.35-1.43,0.53-2.24,0.53c-1.22,0-1.94-0.56-1.94-1.95v-7.65h4.24v-3.07H5.78V23.27z" />
    </g>
</svg>
